# xmcd
#
# Track frame offsets:
#	150
#	19980
#	36267
#	49955
#	65322
#	80362
#	100327
#	119015
#	136507
#	155130
#	164162
#	178562
#	188285
#	200342
#	219950
#	231410
#	248092
#	263702
#	275837
#	297732
#	312777
#
# Disc length: 4390
#
# Revision: 2
# Processed by: cddbd v1.5.1PL0 Copyright (c) Steve Scherf et al.
# Submitted via: audiograbber 1.83.01
# Normalized: r1:DSETVAR1
#
DISCID=39112415
DTITLE=Various Artist - Are You Ready For The Country, Cd2
DYEAR=2001
DGENRE=Country
TTITLE0=Gram Parsons - Return Of The Grevious Angel
TTITLE1=The Band - King Harvest (Has Surely Come)
TTITLE2=Beau Brummels - Turn Around
TTITLE3=Uncle Tupelo - Slate
TTITLE4=Gene Parsons - Willin'
TTITLE5=Earth Opera - Home To You
TTITLE6=Judy Collins - I Pity The Poor Immigrant
TTITLE7=Emmylou Harris - Together Again
TTITLE8=Mother Earth - Lo And Behold
TTITLE9=Everly Brothers - You Done Me Wrong
TTITLE10=Rank and File - Amanda Ruth
TTITLE11=The Monkees - Nine Times Blue
TTITLE12=Doug Sahm - Wallflower
TTITLE13=Travis Tritt - Put Some Drive In Your Country
TTITLE14=John Anderson - Let Somebody Else Drive
TTITLE15=Jerry Lee Lewis - It Was The Whiskey Talkin'
TTITLE16=Willie Nelson - Bloody Mary Morning
TTITLE17=Kris Kristofferson - The Pilgrim: Chapter
TTITLE18=Emmylou Harris - Wrecking Ball
TTITLE19=Lambchop - Magnificent Obsession
TTITLE20=Gene Clark - From The Silver Phial
EXTD=
EXTT0=
EXTT1=
EXTT2=
EXTT3=
EXTT4=
EXTT5=
EXTT6=
EXTT7=
EXTT8=
EXTT9=
EXTT10=
EXTT11=
EXTT12=
EXTT13=
EXTT14=
EXTT15=
EXTT16=
EXTT17=
EXTT18=
EXTT19=
EXTT20=
PLAYORDER=
